<?xml version="1.0" encoding="UTF-8" standalone="no"?>
<!DOCTYPE svg PUBLIC "-//W3C//DTD SVG 1.1//EN" "http://www.w3.org/Graphics/SVG/1.1/DTD/svg11.dtd">
<svg xmlns="http://www.w3.org/2000/svg" version="1.1" viewBox="0.00 0.00 1408.00 768.00">
<path fill="#575fea" d="
  M 675.22 186.77
  A 0.76 0.75 -26.2 0 1 675.66 185.49
  Q 677.44 185.26 684.26 184.56
  Q 690.06 183.96 692.88 184.18
  Q 695.30 184.36 716.45 184.50
  C 745.81 184.69 775.82 184.26 802.75 184.57
  Q 822.04 184.79 839.43 190.09
  Q 849.88 193.28 860.25 198.01
  Q 869.12 202.06 879.43 209.25
  Q 907.07 228.50 923.77 258.51
  C 935.84 280.21 941.39 303.97 941.19 328.99
  C 940.85 371.93 920.19 412.17 886.26 438.50
  C 868.42 452.34 845.82 462.99 823.05 466.30
  C 803.30 469.17 780.79 468.67 762.75 468.70
  Q 761.34 468.71 756.55 468.34
  A 2.30 2.20 -50.1 0 0 755.74 468.43
  Q 752.89 469.33 752.89 472.25
  Q 752.83 496.01 752.93 531.27
  A 3.71 3.71 0.0 0 1 750.93 534.56
  L 656.98 582.95
  A 0.87 0.86 -31.0 0 1 655.88 582.68
  Q 654.96 581.38 654.95 579.81
  Q 654.65 535.08 655.22 486.50
  Q 655.26 482.92 655.04 477.77
  Q 654.97 476.19 656.45 474.31
  Q 657.14 473.43 659.90 472.77
  C 664.01 471.78 668.33 468.97 672.45 467.41
  Q 676.97 465.69 677.58 465.40
  A 9.52 9.34 14.2 0 0 679.52 464.27
  L 685.21 459.96
  A 0.59 0.59 0.0 0 1 686.13 460.25
  L 687.48 464.46
  A 3.12 3.11 -50.5 0 1 687.61 465.83
  Q 687.11 469.86 687.07 471.50
  Q 686.80 483.02 686.74 526.49
  Q 686.74 529.51 688.56 531.56
  A 0.70 0.69 58.2 0 0 689.35 531.75
  C 691.42 530.92 694.09 528.57 696.43 527.38
  Q 704.15 523.46 716.75 516.54
  C 718.50 515.58 720.14 515.17 720.73 512.98
  C 721.14 511.47 721.36 508.13 721.34 506.99
  Q 720.94 481.46 721.27 450.02
  C 721.30 446.81 720.79 438.99 721.79 434.80
  Q 722.14 433.30 724.83 430.07
  C 728.06 426.18 732.59 420.86 736.61 414.94
  Q 744.09 403.93 745.63 401.90
  A 5.50 5.22 -18.0 0 0 746.38 400.52
  C 748.06 395.98 750.55 392.14 752.37 387.69
  Q 757.58 375.02 758.39 373.15
  C 759.23 371.17 760.96 370.67 763.20 370.74
  Q 778.52 371.17 798.51 370.81
  Q 804.47 370.70 812.13 368.91
  C 825.19 365.86 835.83 354.34 840.57 342.05
  Q 844.64 331.53 842.72 320.24
  Q 839.23 299.72 821.62 288.66
  C 812.39 282.86 802.44 282.57 792.16 282.87
  C 779.61 283.23 770.13 282.84 756.64 282.87
  C 753.27 282.88 750.59 281.85 747.32 283.62
  A 0.70 0.69 -22.5 0 0 746.98 284.44
  Q 753.82 306.80 752.99 333.00
  C 752.57 346.36 750.84 357.17 746.63 369.00
  Q 744.82 374.10 742.87 380.84
  Q 742.01 383.82 738.24 390.52
  Q 733.60 398.77 727.18 407.94
  Q 712.21 429.31 690.47 443.70
  Q 683.41 448.38 672.30 454.40
  C 667.08 457.23 662.32 458.53 656.74 460.72
  Q 646.27 464.84 634.19 466.32
  C 613.94 468.81 595.01 468.85 568.61 468.32
  A 2.24 2.18 -53.4 0 0 567.81 468.45
  Q 565.18 469.39 565.15 472.27
  Q 565.02 487.45 565.06 530.98
  Q 565.07 533.59 562.60 534.85
  Q 521.93 555.55 488.47 572.94
  C 481.42 576.60 474.78 579.33 469.50 583.34
  A 0.93 0.92 49.9 0 1 468.27 583.23
  C 465.65 580.40 466.80 577.17 466.82 573.54
  Q 467.16 504.76 466.89 374.50
  Q 466.89 372.94 468.60 370.89
  A 0.89 0.89 0.0 0 1 469.44 370.58
  Q 472.47 371.06 473.50 371.05
  Q 481.71 371.01 494.04 370.93
  C 506.16 370.85 521.57 370.10 534.01 370.82
  C 542.88 371.33 552.03 370.64 561.01 370.73
  Q 591.38 371.02 610.76 371.00
  C 618.09 371.00 627.38 368.64 633.81 364.69
  C 650.39 354.50 659.49 334.56 653.70 315.20
  Q 647.30 293.84 627.87 285.67
  Q 620.51 282.58 609.28 282.80
  Q 602.25 282.94 568.62 282.65
  Q 566.96 282.64 565.68 283.93
  A 1.85 1.83 -22.6 0 0 565.14 285.23
  L 565.14 356.20
  A 1.91 1.90 89.4 0 1 563.28 358.11
  C 557.42 358.26 549.63 358.86 542.89 358.47
  Q 540.03 358.30 536.32 359.11
  A 2.08 2.08 0.0 0 1 533.83 357.50
  C 532.71 352.18 533.42 345.76 533.30 340.09
  Q 532.84 317.53 533.15 301.67
  C 533.45 286.27 532.79 267.69 533.01 254.01
  Q 533.03 252.77 534.72 250.91
  A 1.08 1.05 22.1 0 1 535.58 250.56
  C 537.00 250.65 538.89 251.02 541.13 251.07
  Q 553.32 251.35 570.25 250.97
  Q 588.47 250.56 610.50 250.96
  C 635.87 251.42 657.89 260.84 672.75 281.79
  C 696.79 315.71 690.33 362.69 656.39 387.62
  Q 637.19 401.74 611.00 402.42
  Q 599.89 402.70 583.24 403.30
  Q 574.41 403.61 566.30 403.06
  Q 558.18 402.51 548.78 402.63
  Q 537.68 402.76 525.71 402.66
  Q 505.25 402.49 502.05 402.59
  C 500.03 402.65 499.10 404.90 499.08 406.98
  C 498.87 434.23 498.94 471.94 498.77 524.25
  Q 498.76 527.87 500.56 530.71
  A 1.19 1.19 0.0 0 0 502.31 531.01
  Q 506.00 528.07 508.81 526.82
  Q 511.25 525.73 531.30 515.25
  A 2.82 2.81 -11.9 0 0 532.80 512.96
  C 533.23 506.73 533.41 500.06 533.25 488.79
  C 532.92 466.23 533.22 444.95 532.98 418.82
  C 532.97 417.47 533.30 415.98 533.88 414.69
  A 1.98 1.98 0.0 0 1 536.18 413.59
  Q 541.21 414.89 545.13 413.76
  A 3.53 3.36 35.1 0 1 546.14 413.61
  L 563.24 413.61
  A 1.63 1.62 -6.2 0 1 564.83 414.88
  Q 565.32 417.09 565.25 421.02
  Q 565.09 430.00 564.55 435.05
  A 1.39 1.38 20.5 0 0 565.14 436.34
  Q 566.90 437.55 568.98 437.51
  Q 591.31 437.12 611.48 436.87
  Q 621.48 436.74 632.97 434.55
  Q 643.56 432.52 653.49 427.95
  Q 670.00 420.35 679.59 412.59
  C 715.91 383.21 730.90 335.57 714.94 291.18
  Q 708.80 274.10 698.65 260.64
  Q 676.33 231.03 641.07 220.21
  C 631.91 217.40 621.88 216.80 611.50 216.82
  Q 578.60 216.86 546.48 216.73
  C 533.91 216.68 516.15 217.07 502.51 216.50
  Q 500.88 216.43 499.66 217.96
  A 1.61 1.60 -23.7 0 0 499.32 218.82
  Q 498.99 222.39 499.00 223.00
  Q 499.14 277.43 498.91 351.24
  Q 498.90 355.12 497.97 358.28
  A 0.89 0.89 0.0 0 1 496.89 358.89
  C 492.23 357.70 486.56 358.87 481.43 358.52
  Q 475.05 358.08 469.51 358.64
  A 1.72 1.72 0.0 0 1 467.65 357.28
  Q 467.08 354.59 467.04 351.75
  Q 466.86 338.58 466.93 283.26
  Q 467.01 203.18 466.81 187.53
  Q 466.79 185.87 468.54 184.20
  A 1.25 1.20 -64.2 0 1 469.45 183.86
  C 470.91 183.94 473.51 184.45 475.86 184.43
  Q 477.98 184.41 496.25 184.49
  Q 506.73 184.54 610.31 184.10
  Q 618.16 184.07 624.16 184.66
  Q 634.35 185.67 638.46 186.11
  A 9.27 8.73 54.9 0 1 640.02 186.43
  Q 643.79 187.58 645.05 187.57
  Q 647.05 187.54 650.24 188.55
  Q 651.65 189.00 655.48 189.74
  C 657.41 190.12 661.01 192.80 663.30 193.93
  Q 677.53 200.96 677.85 201.10
  Q 680.82 202.45 684.38 204.85
  C 687.63 207.03 690.05 208.08 692.63 210.41
  Q 695.13 212.69 699.25 215.05
  A 7.91 7.86 81.6 0 1 700.79 216.20
  Q 709.12 224.16 712.32 227.42
  Q 721.83 237.10 729.17 248.74
  A 2.38 2.31 -89.1 0 0 729.80 249.41
  Q 732.45 251.26 735.26 251.24
  Q 779.23 250.81 798.87 250.88
  C 820.77 250.97 840.62 258.71 855.21 275.04
  C 880.99 303.90 882.56 346.88 856.97 376.19
  Q 841.34 394.10 816.26 400.54
  C 811.00 401.88 801.94 402.47 795.21 402.42
  Q 779.50 402.30 762.04 402.67
  A 5.82 5.68 -40.0 0 1 760.97 402.59
  C 757.71 402.04 755.09 400.90 753.08 404.54
  A 0.66 0.62 61.8 0 0 752.99 404.87
  L 752.99 435.31
  A 1.15 1.14 21.4 0 0 753.36 436.15
  Q 754.55 437.22 756.51 437.22
  Q 768.32 437.20 787.00 437.09
  Q 801.04 437.01 809.53 436.32
  Q 815.01 435.88 827.45 433.18
  Q 833.30 431.91 846.15 426.08
  C 864.06 417.94 879.03 404.44 890.50 388.26
  C 902.16 371.80 908.49 350.94 909.37 331.17
  C 910.71 301.03 898.09 269.90 876.81 248.75
  Q 867.90 239.89 859.85 234.45
  C 844.20 223.87 825.34 217.07 805.99 217.03
  Q 757.14 216.93 738.75 216.90
  Q 728.90 216.89 722.78 216.45
  Q 720.54 216.29 717.28 214.89
  A 4.02 3.78 75.9 0 1 716.22 214.21
  Q 715.95 213.96 708.47 207.57
  Q 705.95 205.41 704.27 204.34
  C 700.76 202.11 698.71 199.77 694.73 197.42
  Q 692.44 196.06 689.67 193.64
  C 686.29 190.68 683.20 190.19 677.88 188.37
  Q 676.29 187.83 675.22 186.77
  Z"
/>
</svg>
